<svg width="50" height="50" viewBox="0 0 50 50" fill="none" xmlns="http://www.w3.org/2000/svg">
<path d="M31.2498 47.3958H18.7498C7.43734 47.3958 2.604 42.5625 2.604 31.25V18.75C2.604 7.43749 7.43734 2.60416 18.7498 2.60416H31.2498C42.5623 2.60416 47.3957 7.43749 47.3957 18.75V31.25C47.3957 42.5625 42.5623 47.3958 31.2498 47.3958ZM18.7498 5.72916C9.14567 5.72916 5.729 9.14582 5.729 18.75V31.25C5.729 40.8542 9.14567 44.2708 18.7498 44.2708H31.2498C40.854 44.2708 44.2707 40.8542 44.2707 31.25V18.75C44.2707 9.14582 40.854 5.72916 31.2498 5.72916H18.7498Z" fill="#EFEFEF"/>
<path d="M37.5 31.7708C36.6458 31.7708 35.9375 31.0625 35.9375 30.2083C35.9375 28.7708 34.7708 27.6042 33.3333 27.6042H16.6667C15.2292 27.6042 14.0625 28.7708 14.0625 30.2083C14.0625 31.0625 13.3542 31.7708 12.5 31.7708C11.6458 31.7708 10.9375 31.0625 10.9375 30.2083V16.1458C10.9375 12.9792 13.5 10.4167 16.6667 10.4167H33.3333C36.5 10.4167 39.0625 12.9792 39.0625 16.1458V30.2083C39.0625 31.0625 38.3542 31.7708 37.5 31.7708ZM16.6667 24.4792H33.3333C34.2708 24.4792 35.1667 24.7083 35.9375 25.1042V16.1458C35.9375 14.7083 34.7708 13.5417 33.3333 13.5417H16.6667C15.2292 13.5417 14.0625 14.7083 14.0625 16.1458V25.1042C14.8333 24.7083 15.7292 24.4792 16.6667 24.4792Z" fill="#EFEFEF"/>
<path d="M39.5833 34.375H37.5C36.6458 34.375 35.9375 33.6667 35.9375 32.8125C35.9375 31.9583 36.6458 31.25 37.5 31.25H39.5833C40.4375 31.25 41.1458 31.9583 41.1458 32.8125C41.1458 33.6667 40.4375 34.375 39.5833 34.375Z" fill="#EFEFEF"/>
<path d="M12.4998 34.375H10.4165C9.56234 34.375 8.854 33.6667 8.854 32.8125C8.854 31.9583 9.56234 31.25 10.4165 31.25H12.4998C13.354 31.25 14.0623 31.9583 14.0623 32.8125C14.0623 33.6667 13.354 34.375 12.4998 34.375Z" fill="#EFEFEF"/>
<path d="M37.5 30.7292C36.6458 30.7292 35.9375 30.0208 35.9375 29.1667V22.9167C35.9375 21.4792 34.7708 20.3125 33.3333 20.3125H16.6667C15.2292 20.3125 14.0625 21.4792 14.0625 22.9167V29.1667C14.0625 30.0208 13.3542 30.7292 12.5 30.7292C11.6458 30.7292 10.9375 30.0208 10.9375 29.1667V22.9167C10.9375 19.75 13.5 17.1875 16.6667 17.1875H33.3333C36.5 17.1875 39.0625 19.75 39.0625 22.9167V29.1667C39.0625 30.0208 38.3542 30.7292 37.5 30.7292Z" fill="#EFEFEF"/>
<path d="M25 39.5833C21.8125 39.5833 19.1251 37.3542 18.4167 34.375H12.5C11.6458 34.375 10.9375 33.6667 10.9375 32.8125V30.2083C10.9375 27.0417 13.5 24.4792 16.6667 24.4792H33.3333C36.5 24.4792 39.0625 27.0417 39.0625 30.2083V32.8125C39.0625 33.6667 38.3542 34.375 37.5 34.375H31.5833C30.8749 37.3542 28.1875 39.5833 25 39.5833ZM14.0625 31.25H19.7917C20.6458 31.25 21.3542 31.9583 21.3542 32.8125C21.3542 34.8125 23 36.4583 25 36.4583C27 36.4583 28.6458 34.8125 28.6458 32.8125C28.6458 31.9583 29.3542 31.25 30.2083 31.25H35.9375V30.2083C35.9375 28.7708 34.7708 27.6042 33.3333 27.6042H16.6667C15.2292 27.6042 14.0625 28.7708 14.0625 30.2083V31.25Z" fill="#EFEFEF"/>
</svg>
