<svg width="50" height="50" viewBox="0 0 50 50" fill="none" xmlns="http://www.w3.org/2000/svg">
<path d="M28.1248 19.2708H4.1665C3.31234 19.2708 2.604 18.5625 2.604 17.7083C2.604 16.8542 3.31234 16.1458 4.1665 16.1458H28.1248C28.979 16.1458 29.6873 16.8542 29.6873 17.7083C29.6873 18.5625 28.979 19.2708 28.1248 19.2708Z" fill="#EFEFEF"/>
<path d="M16.6667 35.9375H12.5C11.6458 35.9375 10.9375 35.2292 10.9375 34.375C10.9375 33.5208 11.6458 32.8125 12.5 32.8125H16.6667C17.5208 32.8125 18.2292 33.5208 18.2292 34.375C18.2292 35.2292 17.5208 35.9375 16.6667 35.9375Z" fill="#EFEFEF"/>
<path d="M30.2083 35.9375H21.875C21.0208 35.9375 20.3125 35.2292 20.3125 34.375C20.3125 33.5208 21.0208 32.8125 21.875 32.8125H30.2083C31.0625 32.8125 31.7708 33.5208 31.7708 34.375C31.7708 35.2292 31.0625 35.9375 30.2083 35.9375Z" fill="#EFEFEF"/>
<path d="M36.5832 44.2708H13.4165C5.12484 44.2708 2.604 41.7708 2.604 33.5625V16.4375C2.604 8.22916 5.12484 5.72916 13.4165 5.72916H28.1248C28.979 5.72916 29.6873 6.43749 29.6873 7.29166C29.6873 8.14582 28.979 8.85416 28.1248 8.85416H13.4165C6.87484 8.85416 5.729 9.97916 5.729 16.4375V33.5417C5.729 40 6.87484 41.125 13.4165 41.125H36.5623C43.104 41.125 44.2498 40 44.2498 33.5417V25.0417C44.2498 24.1875 44.9582 23.4792 45.8123 23.4792C46.6665 23.4792 47.3748 24.1875 47.3748 25.0417V33.5417C47.3957 41.7708 44.8748 44.2708 36.5832 44.2708Z" fill="#EFEFEF"/>
<path d="M45.8333 14.5833H34.375C33.5208 14.5833 32.8125 13.875 32.8125 13.0208C32.8125 12.1667 33.5208 11.4583 34.375 11.4583H45.8333C46.6875 11.4583 47.3958 12.1667 47.3958 13.0208C47.3958 13.875 46.6875 14.5833 45.8333 14.5833Z" fill="#EFEFEF"/>
<path d="M40.104 20.3125C39.2498 20.3125 38.5415 19.6042 38.5415 18.75V7.29166C38.5415 6.43749 39.2498 5.72916 40.104 5.72916C40.9582 5.72916 41.6665 6.43749 41.6665 7.29166V18.75C41.6665 19.6042 40.9582 20.3125 40.104 20.3125Z" fill="#EFEFEF"/>
</svg>
