<svg width="50" height="50" viewBox="0 0 50 50" fill="none" xmlns="http://www.w3.org/2000/svg">
<path d="M45.8332 47.3958H4.1665C3.31234 47.3958 2.604 46.6875 2.604 45.8333C2.604 44.9792 3.31234 44.2708 4.1665 44.2708H45.8332C46.6873 44.2708 47.3957 44.9792 47.3957 45.8333C47.3957 46.6875 46.6873 47.3958 45.8332 47.3958Z" fill="#EFEFEF"/>
<path d="M29.6875 47.3958H20.3125C19.4583 47.3958 18.75 46.6875 18.75 45.8333V8.33332C18.75 4.74999 20.7292 2.60416 24.0625 2.60416H25.9375C29.2708 2.60416 31.25 4.74999 31.25 8.33332V45.8333C31.25 46.6875 30.5417 47.3958 29.6875 47.3958ZM21.875 44.2708H28.125V8.33332C28.125 5.93749 27 5.72916 25.9375 5.72916H24.0625C23 5.72916 21.875 5.93749 21.875 8.33332V44.2708Z" fill="#EFEFEF"/>
<path d="M14.5833 47.3958H6.25C5.39583 47.3958 4.6875 46.6875 4.6875 45.8333V20.8333C4.6875 17.25 6.52083 15.1042 9.58333 15.1042H11.25C14.3125 15.1042 16.1458 17.25 16.1458 20.8333V45.8333C16.1458 46.6875 15.4375 47.3958 14.5833 47.3958ZM7.8125 44.2708H13.0208V20.8333C13.0208 18.2292 11.875 18.2292 11.25 18.2292H9.58333C8.95833 18.2292 7.8125 18.2292 7.8125 20.8333V44.2708Z" fill="#EFEFEF"/>
<path d="M43.7498 47.3958H35.4165C34.5623 47.3958 33.854 46.6875 33.854 45.8333V31.25C33.854 27.6667 35.6873 25.5208 38.7498 25.5208H40.4165C43.479 25.5208 45.3123 27.6667 45.3123 31.25V45.8333C45.3123 46.6875 44.604 47.3958 43.7498 47.3958ZM36.979 44.2708H42.1873V31.25C42.1873 28.6458 41.0415 28.6458 40.4165 28.6458H38.7498C38.1248 28.6458 36.979 28.6458 36.979 31.25V44.2708Z" fill="#EFEFEF"/>
</svg>
