<svg width="50" height="50" viewBox="0 0 50 50" fill="none" xmlns="http://www.w3.org/2000/svg">
<path d="M45.8332 47.3958H4.1665C3.31234 47.3958 2.604 46.6875 2.604 45.8333C2.604 44.9792 3.31234 44.2708 4.1665 44.2708H45.8332C46.6873 44.2708 47.3957 44.9792 47.3957 45.8333C47.3957 46.6875 46.6873 47.3958 45.8332 47.3958Z" fill="#EFEFEF"/>
<path d="M7.70898 45.8333H4.58398L4.68816 20.7707C4.68816 18.9999 5.50065 17.3541 6.89649 16.2708L21.4798 4.91661C23.5423 3.31244 26.4382 3.31244 28.5215 4.91661L43.1048 16.2499C44.4798 17.3333 45.3132 19.0207 45.3132 20.7707V45.8333H42.1882V20.7916C42.1882 19.9999 41.8131 19.2291 41.1881 18.7291L26.6048 7.39578C25.6673 6.66662 24.3548 6.66662 23.3965 7.39578L8.81316 18.75C8.18816 19.2291 7.81316 19.9999 7.81316 20.7916L7.70898 45.8333Z" fill="#EFEFEF"/>
<path d="M35.4168 47.3958H14.5835C13.7293 47.3958 13.021 46.6875 13.021 45.8333V26.0417C13.021 23.4583 15.1252 21.3542 17.7085 21.3542H32.2918C34.8752 21.3542 36.9793 23.4583 36.9793 26.0417V45.8333C36.9793 46.6875 36.271 47.3958 35.4168 47.3958ZM16.146 44.2708H33.8543V26.0417C33.8543 25.1875 33.146 24.4792 32.2918 24.4792H17.7085C16.8543 24.4792 16.146 25.1875 16.146 26.0417V44.2708Z" fill="#EFEFEF"/>
<path d="M20.8335 38.5417C19.9793 38.5417 19.271 37.8333 19.271 36.9792V33.8542C19.271 33 19.9793 32.2917 20.8335 32.2917C21.6877 32.2917 22.396 33 22.396 33.8542V36.9792C22.396 37.8333 21.6877 38.5417 20.8335 38.5417Z" fill="#EFEFEF"/>
<path d="M28.125 17.1875H21.875C21.0208 17.1875 20.3125 16.4792 20.3125 15.625C20.3125 14.7708 21.0208 14.0625 21.875 14.0625H28.125C28.9792 14.0625 29.6875 14.7708 29.6875 15.625C29.6875 16.4792 28.9792 17.1875 28.125 17.1875Z" fill="#EFEFEF"/>
</svg>
