<svg width="105" height="105" viewBox="0 0 105 105" fill="none" xmlns="http://www.w3.org/2000/svg">
<path d="M65.1241 79.6874H26.6799C24.4056 79.6874 22.2625 79.4689 20.3381 79.0315C19.3322 78.9003 18.1076 78.5503 16.8393 78.0692C11.0223 75.8824 4.15576 70.5029 4.15576 57.1196V34.5953C4.15576 20.2935 12.3782 12.0713 26.6799 12.0713H65.1241C77.1953 12.0713 84.9803 17.8443 87.0797 28.3411C87.4733 30.2654 87.6483 32.321 87.6483 34.5953V57.1196C87.6483 71.5088 79.4696 79.6874 65.1241 79.6874ZM26.7236 18.7193C15.9644 18.7193 10.7598 23.9237 10.7598 34.6829V57.2071C10.7598 65.0359 13.5153 69.847 19.1573 71.99C20.032 72.2962 20.863 72.5147 21.6503 72.6459C23.3122 72.9958 24.9304 73.1707 26.7236 73.1707H65.1678C75.9269 73.1707 81.1315 67.9663 81.1315 57.2071V34.6829C81.1315 32.8459 81.0004 31.2277 80.6942 29.7406C79.2072 22.3055 74.1337 18.7193 65.1678 18.7193H26.7236Z" fill="#4EC761"/>
<path d="M78.2447 92.8082H39.8005C36.0829 92.8082 32.7589 92.2834 29.916 91.19C23.4868 88.7845 19.2881 83.7111 17.8448 76.4509C17.6261 75.3575 17.9761 74.2204 18.7634 73.4768C19.5506 72.6896 20.6878 72.3834 21.7812 72.6458C23.2245 72.952 24.8427 73.1269 26.6796 73.1269H65.1238C75.8829 73.1269 81.0875 67.9224 81.0875 57.1633V34.639C81.0875 32.8021 80.9563 31.1838 80.6501 29.6968C80.4315 28.6034 80.7814 27.51 81.5249 26.7228C82.3122 25.9355 83.4055 25.5856 84.499 25.848C94.9957 27.9911 100.769 35.7762 100.769 47.7599V70.2842C100.769 84.6297 92.5902 92.8082 78.2447 92.8082ZM25.8924 79.6873C27.2919 82.224 29.3913 84.0174 32.2778 85.0671C34.3772 85.8543 36.9138 86.2478 39.8441 86.2478H78.2883C89.0475 86.2478 94.2521 81.0433 94.2521 70.2842V47.7599C94.2521 40.8496 92.109 36.2573 87.6916 33.8518C87.6916 34.1142 87.6916 34.3766 87.6916 34.639V57.1633C87.6916 71.4651 79.4692 79.6873 65.1675 79.6873H26.7233C26.4171 79.6873 26.1548 79.6873 25.8924 79.6873Z" fill="#4EC761"/>
<path d="M45.9226 60.7498C37.7439 60.7498 31.0959 54.1018 31.0959 45.9231C31.0959 37.7444 37.7439 31.0964 45.9226 31.0964C54.1013 31.0964 60.7493 37.7444 60.7493 45.9231C60.7493 54.1018 54.1013 60.7498 45.9226 60.7498ZM45.9226 37.6569C41.374 37.6569 37.6564 41.3745 37.6564 45.9231C37.6564 50.4717 41.374 54.1893 45.9226 54.1893C50.4712 54.1893 54.1888 50.4717 54.1888 45.9231C54.1888 41.3745 50.4712 37.6569 45.9226 37.6569Z" fill="#4EC761"/>
<path d="M20.9072 58.8256C19.114 58.8256 17.627 57.3386 17.627 55.5454V36.3013C17.627 34.5082 19.114 33.0211 20.9072 33.0211C22.7004 33.0211 24.1874 34.5082 24.1874 36.3013V55.5454C24.1874 57.3386 22.7441 58.8256 20.9072 58.8256Z" fill="#4EC761"/>
<path d="M70.8964 58.8256C69.1032 58.8256 67.6162 57.3386 67.6162 55.5454V36.3013C67.6162 34.5082 69.1032 33.0211 70.8964 33.0211C72.6896 33.0211 74.1767 34.5082 74.1767 36.3013V55.5454C74.1767 57.3386 72.7334 58.8256 70.8964 58.8256Z" fill="#4EC761"/>
</svg>
