<svg width="256" height="256" viewBox="0 0 256 256" fill="none" xmlns="http://www.w3.org/2000/svg">
<path d="M170.667 242.667H85.3337C53.1203 242.667 34.667 224.213 34.667 192V88.0002C34.667 54.4002 51.7337 37.3335 85.3337 37.3335C89.707 37.3335 93.3337 40.9602 93.3337 45.3335C93.3337 49.6002 95.0404 53.6535 98.027 56.6401C101.014 59.6268 105.067 61.3335 109.334 61.3335H146.667C155.52 61.3335 162.667 54.1868 162.667 45.3335C162.667 40.9602 166.294 37.3335 170.667 37.3335C204.267 37.3335 221.334 54.4002 221.334 88.0002V192C221.334 224.213 202.88 242.667 170.667 242.667ZM78.4001 53.5469C61.5467 54.9335 50.667 62.5068 50.667 88.0002V192C50.667 215.68 61.6537 226.667 85.3337 226.667H170.667C194.347 226.667 205.334 215.68 205.334 192V88.0002C205.334 62.5068 194.454 55.0402 177.601 53.5469C173.974 67.2002 161.494 77.3335 146.667 77.3335H109.334C100.8 77.3335 92.8004 74.0268 86.7204 67.9468C82.667 63.8934 79.8934 58.9869 78.4001 53.5469Z" fill="#9EFF4E"/>
<path d="M146.666 77.3335H109.333C100.8 77.3335 92.7997 74.0268 86.7197 67.9468C80.6397 61.8668 77.333 53.8668 77.333 45.3335C77.333 27.7335 91.733 13.3335 109.333 13.3335H146.666C155.2 13.3335 163.2 16.6402 169.28 22.7202C175.36 28.8002 178.666 36.8002 178.666 45.3335C178.666 62.9335 164.266 77.3335 146.666 77.3335ZM109.333 29.3335C100.48 29.3335 93.333 36.4802 93.333 45.3335C93.333 49.6002 95.0397 53.6535 98.0264 56.6401C101.013 59.6268 105.066 61.3335 109.333 61.3335H146.666C155.52 61.3335 162.666 54.1868 162.666 45.3335C162.666 41.0668 160.96 37.0135 157.973 34.0269C154.986 31.0402 150.933 29.3335 146.666 29.3335H109.333Z" fill="#9EFF4E"/>
<path d="M128 146.667H85.333C80.9597 146.667 77.333 143.04 77.333 138.667C77.333 134.293 80.9597 130.667 85.333 130.667H128C132.373 130.667 136 134.293 136 138.667C136 143.04 132.373 146.667 128 146.667Z" fill="#9EFF4E"/>
<path d="M170.666 189.333H85.333C80.9597 189.333 77.333 185.707 77.333 181.333C77.333 176.96 80.9597 173.333 85.333 173.333H170.666C175.04 173.333 178.666 176.96 178.666 181.333C178.666 185.707 175.04 189.333 170.666 189.333Z" fill="#9EFF4E"/>
</svg>
