<svg width="250" height="250" viewBox="0 0 250 250" fill="none" xmlns="http://www.w3.org/2000/svg">
<path d="M126.25 140.937C126.042 140.937 125.729 140.937 125.521 140.937C125.208 140.937 124.792 140.937 124.479 140.937C100.833 140.208 83.125 121.771 83.125 99.0625C83.125 75.9375 101.979 57.0833 125.104 57.0833C148.229 57.0833 167.083 75.9375 167.083 99.0625C166.979 121.875 149.167 140.208 126.562 140.937C126.354 140.937 126.354 140.937 126.25 140.937ZM125 72.6042C110.417 72.6042 98.6458 84.4792 98.6458 98.9583C98.6458 113.229 109.792 124.792 123.958 125.312C124.271 125.208 125.312 125.208 126.354 125.312C140.312 124.583 151.25 113.125 151.354 98.9583C151.354 84.4792 139.583 72.6042 125 72.6042Z" fill="#4EC761"/>
<path d="M125 236.979C96.979 236.979 70.2082 226.563 49.479 207.604C47.604 205.938 46.7707 203.438 46.979 201.042C48.3332 188.646 56.0415 177.083 68.854 168.542C99.8957 147.917 150.208 147.917 181.146 168.542C193.958 177.188 201.666 188.646 203.021 201.042C203.333 203.542 202.396 205.938 200.521 207.604C179.791 226.563 153.021 236.979 125 236.979ZM63.3332 198.958C80.6248 213.438 102.396 221.354 125 221.354C147.604 221.354 169.375 213.438 186.667 198.958C184.792 192.604 179.791 186.458 172.396 181.458C146.771 164.375 103.333 164.375 77.4998 181.458C70.104 186.458 65.2082 192.604 63.3332 198.958Z" fill="#4EC761"/>
<path d="M125 236.979C63.2293 236.979 13.021 186.771 13.021 125C13.021 63.2292 63.2293 13.0208 125 13.0208C186.771 13.0208 236.979 63.2292 236.979 125C236.979 186.771 186.771 236.979 125 236.979ZM125 28.6458C71.8752 28.6458 28.646 71.875 28.646 125C28.646 178.125 71.8752 221.354 125 221.354C178.125 221.354 221.354 178.125 221.354 125C221.354 71.875 178.125 28.6458 125 28.6458Z" fill="#4EC761"/>
</svg>
