<svg width="100" height="100" viewBox="0 0 100 100" fill="none" xmlns="http://www.w3.org/2000/svg">
<path d="M47.9176 94.7917C44.6259 94.7917 41.5009 93.0834 39.3343 90.1667L35.0842 84.5834C34.2092 83.4167 33.0426 82.75 31.7926 82.6667C30.5843 82.5834 29.2927 83.1667 28.2511 84.2084C24.6677 88.0417 21.1675 89.8751 17.8758 89.7917C15.6258 89.7084 13.6675 88.7084 12.1675 86.875C12.0009 86.6667 11.8343 86.3751 11.7093 86.0834C10.0843 82.5834 9.33423 77.8334 9.33423 70.7084V29.375C9.33423 22.25 10.0843 17.5417 11.7093 14C11.8343 13.75 11.9592 13.5 12.1675 13.2917C13.6259 11.4167 15.5844 10.4167 17.8344 10.2917C21.1677 10.1667 24.7094 12.0834 28.2093 15.8334C29.251 16.9584 30.5009 17.5 31.7509 17.4167C33.0009 17.3334 34.1675 16.6667 35.0425 15.5L39.2926 9.87503C41.4592 6.95837 44.5842 5.25003 47.8759 5.25003C51.1676 5.25003 54.2926 6.95837 56.4592 9.87503L60.6676 15.4584C61.5426 16.6667 62.7509 17.3334 64.0426 17.4167C65.2509 17.5 66.5425 16.9167 67.5841 15.8334C71.0008 12.1667 74.376 10.2917 77.626 10.2917C79.9593 10.2917 82.126 11.3334 83.626 13.2917C83.7926 13.5 83.9592 13.75 84.0842 14.0417C85.7092 17.5417 86.4593 22.2917 86.4593 29.4167V70.75C86.4593 77.875 85.7092 82.5834 84.0842 86.125C83.9176 86.5 83.7093 86.8334 83.4177 87.1251C82.126 88.7917 80.001 89.8334 77.626 89.8334C74.376 89.8334 71.0008 87.9584 67.5841 84.2917C66.5841 83.2084 65.2092 82.625 64.0426 82.7084C62.7509 82.7917 61.5843 83.4584 60.6676 84.6667L56.4592 90.2501C54.3342 93.0834 51.2093 94.7917 47.9176 94.7917ZM31.5843 76.3751C31.751 76.3751 31.9594 76.3751 32.126 76.3751C35.2094 76.5417 38.0842 78.1667 40.0425 80.7917L44.2926 86.4167C46.3343 89.1667 49.4175 89.1667 51.4592 86.4584L55.6675 80.875C57.6675 78.2084 60.5844 76.625 63.6677 76.4584C66.7511 76.2917 69.8342 77.5834 72.0842 80C75.1675 83.2917 77.0425 83.5417 77.5425 83.5417C77.8759 83.5417 78.1677 83.4584 78.4593 83.2084C79.626 80.5834 80.1259 76.625 80.1259 70.7084V29.375C80.1259 23.5417 79.5843 19.5834 78.4593 16.9584C78.126 16.5834 77.7925 16.5417 77.5425 16.5417C77.0425 16.5417 75.1675 16.7917 72.0842 20.0834C69.8342 22.5 66.7511 23.7917 63.6677 23.625C60.5427 23.4584 57.6258 21.8334 55.6258 19.2084L51.4177 13.625C49.376 10.875 46.2926 10.875 44.2509 13.625L40.0008 19.2917C38.0425 21.9167 35.1677 23.5 32.0843 23.6667C29.001 23.8334 25.9176 22.5417 23.6676 20.1667C21.1259 17.4167 19.1677 16.5 18.0844 16.5417C17.8344 16.5417 17.5426 16.625 17.2093 16.9584C16.0843 19.5834 15.5425 23.5417 15.5425 29.375V70.7084C15.5425 76.5834 16.0843 80.5417 17.2093 83.1667C17.5843 83.5 17.8344 83.5417 18.0844 83.5834C19.126 83.625 21.0842 82.7084 23.6259 80C25.8342 77.625 28.7093 76.3751 31.5843 76.3751Z" fill="#00A61B"/>
<path d="M66.6666 45.8333H33.3333C31.6249 45.8333 30.2083 44.4167 30.2083 42.7083C30.2083 41 31.6249 39.5833 33.3333 39.5833H66.6666C68.3749 39.5833 69.7916 41 69.7916 42.7083C69.7916 44.4167 68.3749 45.8333 66.6666 45.8333Z" fill="#00A61B"/>
<path d="M58.3333 60.4167H33.3333C31.6249 60.4167 30.2083 59 30.2083 57.2917C30.2083 55.5833 31.6249 54.1667 33.3333 54.1667H58.3333C60.0416 54.1667 61.4583 55.5833 61.4583 57.2917C61.4583 59 60.0416 60.4167 58.3333 60.4167Z" fill="#00A61B"/>
</svg>
