<svg width="256" height="256" viewBox="0 0 256 256" fill="none" xmlns="http://www.w3.org/2000/svg">
<path d="M128 136C94.187 136 66.667 108.48 66.667 74.6666C66.667 40.8532 94.187 13.3333 128 13.3333C161.814 13.3333 189.334 40.8532 189.334 74.6666C189.334 108.48 161.814 136 128 136ZM128 29.3333C103.04 29.3333 82.667 49.7066 82.667 74.6666C82.667 99.6266 103.04 120 128 120C152.96 120 173.334 99.6266 173.334 74.6666C173.334 49.7066 152.96 29.3333 128 29.3333Z" fill="#9EFF4E"/>
<path d="M219.628 242.667C215.255 242.667 211.628 239.04 211.628 234.667C211.628 197.867 174.082 168 128.002 168C81.9216 168 44.375 197.867 44.375 234.667C44.375 239.04 40.7483 242.667 36.375 242.667C32.0017 242.667 28.375 239.04 28.375 234.667C28.375 189.12 73.0683 152 128.002 152C182.935 152 227.628 189.12 227.628 234.667C227.628 239.04 224.002 242.667 219.628 242.667Z" fill="#9EFF4E"/>
</svg>
