<svg width="256" height="256" viewBox="0 0 256 256" fill="none" xmlns="http://www.w3.org/2000/svg">
<path d="M128 136C94.187 136 66.667 108.48 66.667 74.6666C66.667 40.8532 94.187 13.3333 128 13.3333C161.814 13.3333 189.334 40.8532 189.334 74.6666C189.334 108.48 161.814 136 128 136ZM128 29.3333C103.04 29.3333 82.667 49.7066 82.667 74.6666C82.667 99.6266 103.04 120 128 120C152.96 120 173.334 99.6266 173.334 74.6666C173.334 49.7066 152.96 29.3333 128 29.3333Z" fill="#9EFF4E"/>
<path d="M36.375 242.667C32.0017 242.667 28.375 239.04 28.375 234.667C28.375 189.12 73.0683 152 128.002 152C138.775 152 149.335 153.387 159.575 156.267C163.842 157.44 166.295 161.813 165.122 166.08C163.948 170.347 159.575 172.8 155.308 171.627C146.562 169.174 137.388 168 128.002 168C81.9216 168 44.375 197.867 44.375 234.667C44.375 239.04 40.7483 242.667 36.375 242.667Z" fill="#9EFF4E"/>
<path d="M192 242.667C179.413 242.667 167.466 237.973 158.186 229.547C154.453 226.347 151.146 222.4 148.586 218.027C143.893 210.347 141.333 201.28 141.333 192C141.333 178.667 146.453 166.187 155.626 156.693C165.226 146.773 178.133 141.333 192 141.333C206.506 141.333 220.266 147.52 229.653 158.187C237.973 167.467 242.666 179.413 242.666 192C242.666 196.053 242.133 200.107 241.066 203.947C240 208.747 237.973 213.76 235.2 218.133C226.346 233.28 209.706 242.667 192 242.667ZM192 157.333C182.506 157.333 173.76 161.066 167.146 167.786C160.853 174.293 157.333 182.827 157.333 192C157.333 198.293 159.04 204.48 162.346 209.813C164.053 212.8 166.293 215.466 168.853 217.706C175.253 223.573 183.466 226.773 192 226.773C204.053 226.773 215.466 220.373 221.653 210.027C223.466 207.04 224.853 203.627 225.6 200.32C226.346 197.547 226.666 194.88 226.666 192.107C226.666 183.573 223.466 175.36 217.706 168.96C211.306 161.494 201.92 157.333 192 157.333Z" fill="#9EFF4E"/>
<path d="M207.998 199.786H176.104C171.731 199.786 168.104 196.16 168.104 191.786C168.104 187.413 171.731 183.786 176.104 183.786H207.998C212.371 183.786 215.998 187.413 215.998 191.786C215.998 196.16 212.371 199.786 207.998 199.786Z" fill="#9EFF4E"/>
<path d="M192 216.107C187.627 216.107 184 212.48 184 208.107V176.214C184 171.84 187.627 168.214 192 168.214C196.373 168.214 200 171.84 200 176.214V208.107C200 212.587 196.373 216.107 192 216.107Z" fill="#9EFF4E"/>
</svg>
